<?xml version="1.0" encoding="UTF-8"?>
<svg id="Layer_1" xmlns="http://www.w3.org/2000/svg" viewBox="0 0 835.6 426.25">
  <defs>
    <style>
      .cls-1 {
        fill: none;
        stroke: #216130;
        stroke-miterlimit: 10;
        stroke-width: 7px;
      }

      .cls-2 {
        fill: #1e351a;
      }

      .cls-3 {
        fill: #4e1521;
      }

      .cls-4 {
        fill: #6b2532;
      }

      .cls-5 {
        fill: #497a39;
      }

      .cls-6 {
        fill: #8d3e4b;
      }

      .cls-7 {
        fill: #b06674;
      }
    </style>
  </defs>
  <path class="cls-1" d="M503.94,325.13s81.72,61.59,194.11-50.8c112.39-112.39,53.21-183.58,53.21-183.58"/>
  <path class="cls-2" d="M758.41,105.18c3.24,2.19,4.23-.43,5.43-6.65,1.35-7.33,2.18-14.29,2.81-22,1.03-16.7,2.15-32.32-2.33-48.86-2.41-8.94-8.31-21.21-13.72-26.47-2.88-2.77-4.43-.23-5.49,2.47-7.24,17.18-14.36,54.27.37,82.47,2.94,6.33,8.8,16,12.86,18.99l.07.05Z"/>
  <path class="cls-5" d="M753.19,100.05c3.35-2.02,1.38-4.02-3.75-7.72-6.08-4.3-12.05-7.99-18.78-11.81-14.72-7.96-28.41-15.55-45.31-18.44-9.13-1.58-22.73-1.38-29.78,1.31-3.72,1.45-2.08,3.92-.07,6.02,12.54,13.8,43.19,35.86,74.97,34.36,6.98,0,18.22-1.25,22.64-3.67l.07-.04Z"/>
  <path class="cls-2" d="M751.61,203.04c-.13,3.91,2.62,3.35,8.52,1.06,6.92-2.76,13.26-5.76,20.12-9.34,14.69-8.02,28.5-15.39,40.11-27.99,6.29-6.8,13.52-18.33,15.1-25.71.81-3.91-2.16-3.88-5.02-3.33-18.4,3.02-53.58,16.74-69.61,44.23-3.79,5.86-8.86,15.97-9.23,21v.08Z"/>
  <path class="cls-2" d="M687.93,280.72c-2.02,3.35.66,4.2,6.92,5.08,7.39.96,14.39,1.43,22.12,1.66,16.73.16,32.38.46,48.67-4.88,8.8-2.87,20.74-9.41,25.72-15.08,2.61-3.02,0-4.44-2.76-5.36-17.53-6.33-54.94-11.5-82.34,4.68-6.17,3.26-15.52,9.62-18.29,13.83l-.05.07Z"/>
  <path class="cls-2" d="M558,341.2c-3.91-.17-3.37,2.59-1.14,8.51,2.7,6.94,5.64,13.31,9.15,20.21,7.88,14.76,15.12,28.64,27.62,40.37,6.74,6.35,18.2,13.69,25.56,15.34,3.9.85,3.9-2.13,3.38-4.99-2.85-18.42-16.24-53.73-43.58-70.02-5.82-3.85-15.89-9.01-20.91-9.42h-.08Z"/>
  <path class="cls-5" d="M745.51,216.88c3.82-.85,2.59-3.37-1.1-8.51-4.4-6.01-8.89-11.4-14.06-17.16-11.43-12.22-22-23.77-37.11-31.87-8.15-4.39-21.12-8.53-28.66-8.22-3.99.19-3.22,3.06-1.98,5.69,7.51,17.06,29.56,47.72,60.18,56.39,6.62,2.21,17.67,4.6,22.63,3.7l.08-.02Z"/>
  <path class="cls-5" d="M628.85,326.56c2.95,2.57,4.25.08,6.19-5.94,2.22-7.11,3.89-13.92,5.45-21.5,3.04-16.46,6.04-31.82,3.59-48.78-1.31-9.17-5.69-22.05-10.42-27.93-2.53-3.1-4.37-.77-5.75,1.79-9.26,16.18-20.81,52.13-9.59,81.91,2.15,6.64,6.8,16.95,10.47,20.41l.06.06Z"/>
  <path class="cls-5" d="M628.59,326.68c3.71,1.24,3.95-1.55,3.45-7.86-.67-7.42-1.74-14.35-3.2-21.95-3.49-16.37-6.6-31.71-15.36-46.44-4.72-7.97-13.7-18.2-20.32-21.82-3.52-1.89-4.33.96-4.63,3.86-2.36,18.49.73,56.13,22.5,79.35,4.53,5.31,12.77,13.05,17.48,14.84l.08.03Z"/>
  <path class="cls-5" d="M500.58,325.9c.93,3.8,3.42,2.52,8.49-1.28,5.92-4.52,11.22-9.12,16.87-14.41,11.99-11.68,23.31-22.49,31.1-37.75,4.22-8.24,8.09-21.29,7.63-28.82-.27-3.99-3.12-3.15-5.73-1.86-16.91,7.86-47.1,30.54-55.14,61.33-2.08,6.66-4.24,17.76-3.24,22.71l.02.08Z"/>
  <circle class="cls-4" cx="641.14" cy="308.56" r="10.57"/>
  <circle class="cls-4" cx="752.23" cy="118.97" r="10.57"/>
  <circle class="cls-3" cx="739.05" cy="117.2" r="10.57"/>
  <circle class="cls-4" cx="756.93" cy="134.98" r="10.57"/>
  <circle class="cls-4" cx="745.03" cy="131.94" r="10.57"/>
  <circle class="cls-3" cx="749.19" cy="148.27" r="10.57"/>
  <circle class="cls-3" cx="687.08" cy="267.42" r="10.57"/>
  <circle class="cls-3" cx="677.96" cy="283.5" r="10.57"/>
  <circle class="cls-3" cx="671.98" cy="279.57" r="10.57"/>
  <circle class="cls-3" cx="663.71" cy="290.79" r="10.57"/>
  <circle class="cls-4" cx="681.66" cy="282.98" r="10.57"/>
  <circle class="cls-4" cx="675.95" cy="296.43" r="10.57"/>
  <circle class="cls-4" cx="663.02" cy="298.44" r="10.57"/>
  <circle class="cls-4" cx="699.39" cy="259.75" r="10.57"/>
  <circle class="cls-4" cx="756.19" cy="149.19" r="10.57"/>
  <circle class="cls-4" cx="761.47" cy="124.67" r="10.57"/>
  <circle class="cls-6" cx="748.23" cy="105.27" r="10.57"/>
  <circle class="cls-6" cx="765" cy="111.97" r="10.57"/>
  <circle class="cls-6" cx="760.98" cy="132.95" r="10.57"/>
  <circle class="cls-6" cx="769.04" cy="143.36" r="10.57"/>
  <circle class="cls-6" cx="773.15" cy="127.58" r="10.57"/>
  <circle class="cls-7" cx="774.63" cy="114.12" r="10.57"/>
  <circle class="cls-7" cx="757.08" cy="99.17" r="10.57"/>
  <circle class="cls-6" cx="771.09" cy="149.23" r="10.57"/>
  <circle class="cls-7" cx="778.18" cy="137.55" r="10.57"/>
  <circle class="cls-6" cx="747.1" cy="192.46" r="10.57"/>
  <circle class="cls-6" cx="692.81" cy="271.83" r="10.57"/>
  <circle class="cls-7" cx="692.15" cy="287.43" r="10.57"/>
  <circle class="cls-6" cx="671.34" cy="305.07" r="10.57"/>
  <circle class="cls-7" cx="680.07" cy="296.33" r="10.57"/>
  <path class="cls-1" d="M331.66,325.6s-81.72,61.59-194.11-50.8C25.17,162.42,84.34,91.22,84.34,91.22"/>
  <path class="cls-2" d="M77.19,105.65c-3.24,2.19-4.23-.43-5.43-6.65-1.35-7.33-2.18-14.29-2.81-22-1.03-16.7-2.15-32.32,2.33-48.86,2.41-8.94,8.31-21.21,13.72-26.47,2.88-2.77,4.43-.23,5.49,2.47,7.24,17.18,14.36,54.27-.37,82.47-2.94,6.33-8.8,16-12.86,18.99l-.07.05Z"/>
  <path class="cls-5" d="M82.41,100.52c-3.35-2.02-1.38-4.02,3.75-7.72,6.08-4.3,12.05-7.99,18.78-11.81,14.72-7.96,28.41-15.55,45.31-18.44,9.13-1.58,22.73-1.38,29.78,1.31,3.72,1.45,2.08,3.92.07,6.02-12.54,13.8-43.19,35.86-74.97,34.36-6.98,0-18.22-1.25-22.64-3.67l-.07-.04Z"/>
  <path class="cls-2" d="M83.99,203.51c.13,3.91-2.62,3.35-8.52,1.06-6.92-2.76-13.26-5.76-20.12-9.34-14.69-8.02-28.5-15.39-40.11-27.99-6.29-6.8-13.52-18.33-15.1-25.71-.81-3.91,2.16-3.88,5.02-3.33,18.4,3.02,53.58,16.74,69.61,44.23,3.79,5.86,8.86,15.97,9.23,21v.08Z"/>
  <path class="cls-2" d="M147.67,281.19c2.02,3.35-.66,4.2-6.92,5.08-7.39.96-14.39,1.43-22.12,1.66-16.73.16-32.38.46-48.67-4.88-8.8-2.87-20.74-9.41-25.72-15.08-2.61-3.02,0-4.44,2.76-5.36,17.53-6.33,54.94-11.5,82.34,4.68,6.17,3.26,15.52,9.62,18.29,13.83l.05.07Z"/>
  <path class="cls-2" d="M277.6,341.67c3.91-.17,3.37,2.59,1.14,8.51-2.7,6.94-5.64,13.31-9.15,20.21-7.88,14.76-15.12,28.64-27.62,40.37-6.74,6.35-18.2,13.69-25.56,15.34-3.9.85-3.9-2.13-3.38-4.99,2.85-18.42,16.24-53.73,43.58-70.02,5.82-3.85,15.89-9.01,20.91-9.42h.08Z"/>
  <path class="cls-5" d="M90.09,217.35c-3.82-.85-2.59-3.37,1.1-8.51,4.4-6.01,8.89-11.4,14.06-17.16,11.43-12.22,22-23.77,37.11-31.87,8.15-4.39,21.12-8.53,28.66-8.22,3.99.19,3.22,3.06,1.98,5.69-7.51,17.06-29.56,47.72-60.18,56.39-6.62,2.21-17.67,4.6-22.63,3.7l-.08-.02Z"/>
  <path class="cls-5" d="M206.76,327.03c-2.95,2.57-4.25.08-6.19-5.94-2.22-7.11-3.89-13.92-5.45-21.5-3.04-16.46-6.04-31.82-3.59-48.78,1.31-9.17,5.69-22.05,10.42-27.93,2.53-3.1,4.37-.77,5.75,1.79,9.26,16.18,20.81,52.13,9.59,81.91-2.15,6.64-6.8,16.95-10.47,20.41l-.06.06Z"/>
  <path class="cls-5" d="M207.01,327.14c-3.71,1.24-3.95-1.55-3.45-7.86.67-7.42,1.74-14.35,3.2-21.95,3.49-16.37,6.6-31.71,15.36-46.44,4.72-7.97,13.7-18.2,20.32-21.82,3.52-1.89,4.33.96,4.63,3.86,2.36,18.49-.73,56.13-22.5,79.35-4.53,5.31-12.77,13.05-17.48,14.84l-.08.03Z"/>
  <path class="cls-5" d="M335.02,326.37c-.93,3.8-3.42,2.52-8.49-1.28-5.92-4.52-11.22-9.12-16.87-14.41-11.99-11.68-23.31-22.49-31.1-37.75-4.22-8.24-8.09-21.29-7.63-28.82.27-3.99,3.12-3.15,5.73-1.86,16.91,7.86,47.1,30.54,55.14,61.33,2.08,6.66,4.24,17.76,3.24,22.71l-.02.08Z"/>
  <circle class="cls-4" cx="194.46" cy="309.03" r="10.57"/>
  <circle class="cls-4" cx="83.38" cy="119.44" r="10.57"/>
  <circle class="cls-3" cx="96.55" cy="117.67" r="10.57"/>
  <circle class="cls-4" cx="78.68" cy="135.45" r="10.57"/>
  <circle class="cls-4" cx="90.58" cy="132.41" r="10.57"/>
  <circle class="cls-3" cx="86.41" cy="148.74" r="10.57"/>
  <circle class="cls-3" cx="148.52" cy="267.89" r="10.57"/>
  <circle class="cls-3" cx="157.64" cy="283.97" r="10.57"/>
  <circle class="cls-3" cx="163.63" cy="280.04" r="10.57"/>
  <circle class="cls-3" cx="171.89" cy="291.26" r="10.57"/>
  <circle class="cls-4" cx="153.94" cy="283.45" r="10.57"/>
  <circle class="cls-4" cx="159.65" cy="296.9" r="10.57"/>
  <circle class="cls-4" cx="172.58" cy="298.91" r="10.57"/>
  <circle class="cls-4" cx="136.21" cy="260.22" r="10.57"/>
  <circle class="cls-4" cx="79.41" cy="149.66" r="10.57"/>
  <circle class="cls-4" cx="74.14" cy="125.14" r="10.57"/>
  <circle class="cls-6" cx="87.37" cy="105.73" r="10.57"/>
  <circle class="cls-6" cx="70.61" cy="112.44" r="10.57"/>
  <circle class="cls-6" cx="74.63" cy="133.42" r="10.57"/>
  <circle class="cls-6" cx="66.56" cy="143.83" r="10.57"/>
  <circle class="cls-6" cx="62.46" cy="128.05" r="10.57"/>
  <circle class="cls-7" cx="60.98" cy="114.59" r="10.57"/>
  <circle class="cls-7" cx="78.52" cy="99.64" r="10.57"/>
  <circle class="cls-6" cx="64.52" cy="149.7" r="10.57"/>
  <circle class="cls-7" cx="57.42" cy="138.02" r="10.57"/>
  <circle class="cls-6" cx="88.5" cy="192.93" r="10.57"/>
  <circle class="cls-6" cx="142.79" cy="272.3" r="10.57"/>
  <circle class="cls-7" cx="143.45" cy="287.9" r="10.57"/>
  <circle class="cls-6" cx="164.27" cy="305.54" r="10.57"/>
  <circle class="cls-7" cx="155.53" cy="296.8" r="10.57"/>
</svg>