<?xml version="1.0" encoding="UTF-8"?>
<svg id="Layer_2" xmlns="http://www.w3.org/2000/svg" viewBox="0 0 373 346">
  <defs>
    <style>
      .cls-1 {
        fill: #4b3c3d;
      }
    </style>
  </defs>
  <path class="cls-1" d="M362.56,156.89c-3.78-13.69-18.89-40.14-53.83-42.97H31.56s-9.44,2.83-9.44,11.33v82.63c0,40.14,25.5,69.88,26.44,76.49.94,6.61,2.36,8.97,1.42,12.28-.94,3.31-5.67,13.22-14.17,14.17-8.5.94-13.69,2.36-13.69,12.28s7.08,11.8,13.22,12.28,268.67,0,273.39,0,8.5-7.08,8.5-12.75-1.42-9.92-8.5-11.33c-7.08-1.42-14.64-3.31-17.47-8.03-2.83-4.72-3.78-9.44-2.36-15.11,1.42-5.67,8.5-12.59,10.39-17.16,1.89-4.56,7.55-16.37,10.39-17.79,2.83-1.42,16.53-8.03,25.5-12.28,8.97-4.25,22.19-16.05,27.39-33.05s3.78-37.3,0-51ZM252.54,290.52c-23.14,18.89-51.47,19.83-77.44,19.83s-67.99,3.78-95.85-26.44c-27.86-30.22-30.22-58.55-32.58-76.49-1.99-15.14,2.07-46.08,32.88-61.62,8.99-4.53,18.94-6.83,29-7.11,28.61-.78,116.42-2.9,129.83.26,16.05,3.78,37.77,7.08,51.47,43.44,13.69,36.36-14.17,89.24-37.3,108.13ZM341.89,182.63c-1.86,17.92-1.86,28.15-13.96,31.41-6.51,0-11.12-9.07-11.14-10.7-.03-1.63.21-20.71.21-20.71,0,0-.47-13.03,0-19.54.47-6.51,4.65-12.8,11.17-12.8s15.59,14.43,13.73,32.34Z"/>
  <rect class="cls-1" x="107.51" y="15.93" width="25.19" height="73.71" rx="12" ry="12"/>
  <rect class="cls-1" x="157.26" y="15.93" width="25.19" height="73.71" rx="12" ry="12"/>
  <rect class="cls-1" x="206.4" y="15.93" width="25.19" height="73.71" rx="12" ry="12"/>
</svg>